<svg width="600" height="400" xmlns="http://www.w3.org/2000/svg">
    <!-- Main tub body (black) -->
    <rect x="100" y="100" width="400" height="200" rx="20" ry="20" fill="#222222" />

    <!-- Inner tub area (with ice) -->
    <rect x="120" y="120" width="360" height="100" rx="10" ry="10" fill="#E8F4FF" />

    <!-- Purple accent stripe (using AC6AFF) -->
    <polygon points="100,150 180,100 220,100 140,220 100,220" fill="#AC6AFF" />

    <!-- Ice chunks -->
    <circle cx="150" cy="140" r="10" fill="#FFFFFF" opacity="0.8" />
    <circle cx="180" cy="150" r="8" fill="#FFFFFF" opacity="0.8" />
    <circle cx="210" cy="140" r="9" fill="#FFFFFF" opacity="0.8" />
    <circle cx="240" cy="160" r="7" fill="#FFFFFF" opacity="0.8" />
    <circle cx="270" cy="145" r="10" fill="#FFFFFF" opacity="0.8" />
    <circle cx="300" cy="155" r="8" fill="#FFFFFF" opacity="0.8" />
    <circle cx="330" cy="140" r="9" fill="#FFFFFF" opacity="0.8" />
    <circle cx="360" cy="160" r="7" fill="#FFFFFF" opacity="0.8" />
    <circle cx="390" cy="145" r="10" fill="#FFFFFF" opacity="0.8" />
    <circle cx="420" cy="155" r="8" fill="#FFFFFF" opacity="0.8" />

    <!-- Subtle highlights and shadows -->
    <rect x="120" y="120" width="360" height="10" fill="#FFFFFF" opacity="0.2" />
    <rect x="120" y="210" width="360" height="10" fill="#000000" opacity="0.2" />

    <!-- Tub edge highlights -->
    <rect x="100" y="100" width="400" height="5" fill="#444444" />
</svg>